<svg width="18" height="21" viewBox="0 0 18 21" fill="none" xmlns="http://www.w3.org/2000/svg">
<path d="M6 15C5.3 15 4.70833 14.7583 4.225 14.275C3.74167 13.7917 3.5 13.2 3.5 12.5C3.5 11.8 3.74167 11.2083 4.225 10.725C4.70833 10.2417 5.3 10 6 10C6.7 10 7.29167 10.2417 7.775 10.725C8.25833 11.2083 8.5 11.8 8.5 12.5C8.5 13.2 8.25833 13.7917 7.775 14.275C7.29167 14.7583 6.7 15 6 15ZM2 20.5C1.45 20.5 0.979 20.3043 0.587 19.913C0.195667 19.521 0 19.05 0 18.5V4.5C0 3.95 0.195667 3.47933 0.587 3.088C0.979 2.696 1.45 2.5 2 2.5H3V0.5H5V2.5H13V0.5H15V2.5H16C16.55 2.5 17.021 2.696 17.413 3.088C17.8043 3.47933 18 3.95 18 4.5V18.5C18 19.05 17.8043 19.521 17.413 19.913C17.021 20.3043 16.55 20.5 16 20.5H2ZM2 18.5H16V8.5H2V18.5Z" fill="#9333EA"/>
</svg>
