<svg width="21" height="21" viewBox="0 0 21 21" fill="none" xmlns="http://www.w3.org/2000/svg">
<path d="M20.89 8.82L20.1 6.3C20.0147 6.00876 19.8716 5.73767 19.6793 5.50292C19.487 5.26817 19.2493 5.07456 18.9805 4.93364C18.7118 4.79272 18.4174 4.70737 18.1149 4.6827C17.8124 4.65802 17.5081 4.69451 17.22 4.79L16.88 4.9C16.6136 4.98805 16.3299 5.01039 16.0531 4.96511C15.7762 4.91984 15.5144 4.8083 15.29 4.64L15.18 4.56C14.961 4.39237 14.7844 4.17562 14.6646 3.92723C14.5447 3.67884 14.4849 3.40575 14.49 3.13V2.85C14.4949 2.22202 14.2503 1.61779 13.81 1.17C13.6006 0.958452 13.3514 0.790362 13.0768 0.675383C12.8023 0.560404 12.5077 0.500802 12.21 0.5H9.66C9.04817 0.507906 8.46424 0.757192 8.03535 1.19358C7.60645 1.62997 7.36731 2.21813 7.37 2.83V3.07C7.36904 3.36027 7.30295 3.64663 7.17661 3.90796C7.05027 4.1693 6.86689 4.39895 6.64 4.58L6.51 4.68C6.25934 4.86962 5.96616 4.99516 5.65595 5.0457C5.34574 5.09624 5.02788 5.07025 4.73 4.97C4.45641 4.87533 4.16646 4.83715 3.87769 4.85777C3.58893 4.8784 3.30735 4.9574 3.05 5.09C2.78205 5.22299 2.54434 5.40969 2.35166 5.6385C2.15898 5.86731 2.01544 6.13333 1.93 6.42L1.11 9.02C0.919839 9.6062 0.968605 10.2437 1.24571 10.7942C1.52281 11.3447 2.00587 11.7636 2.59 11.96H2.75C3.01945 12.061 3.2613 12.2241 3.4559 12.4361C3.65051 12.648 3.79238 12.9029 3.87 13.18L3.93 13.34C4.04147 13.6461 4.07875 13.9743 4.03877 14.2977C3.99879 14.621 3.88269 14.9302 3.7 15.2C3.33021 15.7036 3.17424 16.3328 3.266 16.9508C3.35776 17.5688 3.68984 18.1256 4.19 18.5L6.26 20.07C6.65195 20.355 7.12543 20.5058 7.61 20.5C7.73969 20.5127 7.87031 20.5127 8 20.5C8.3001 20.4419 8.58522 20.3233 8.83796 20.1514C9.09069 19.9794 9.30575 19.7578 9.47 19.5L9.7 19.17C9.86134 18.9386 10.0748 18.7483 10.3232 18.6145C10.5716 18.4808 10.848 18.4073 11.13 18.4C11.4256 18.3927 11.7181 18.4604 11.9804 18.5968C12.2427 18.7332 12.4662 18.9339 12.63 19.18L12.75 19.35C12.9205 19.6037 13.1411 19.8199 13.3983 19.9852C13.6555 20.1504 13.9438 20.2613 14.2454 20.3109C14.5471 20.3606 14.8557 20.348 15.1523 20.2739C15.4489 20.1997 15.7272 20.0657 15.97 19.88L18 18.36C18.48 17.9872 18.7992 17.445 18.8921 16.8444C18.9851 16.2438 18.8448 15.6304 18.5 15.13L18.24 14.75C18.0836 14.5084 17.9813 14.236 17.9399 13.9512C17.8984 13.6664 17.9189 13.3761 18 13.1C18.0826 12.8044 18.236 12.5334 18.4468 12.3104C18.6576 12.0874 18.9195 11.9191 19.21 11.82L19.41 11.75C19.9887 11.5492 20.4667 11.1312 20.7428 10.5845C21.019 10.0377 21.0718 9.40496 20.89 8.82ZM11 14C10.3078 14 9.63107 13.7947 9.0555 13.4101C8.47993 13.0256 8.03132 12.4789 7.76642 11.8394C7.50151 11.1999 7.4322 10.4961 7.56725 9.81718C7.7023 9.13825 8.03564 8.51461 8.52512 8.02513C9.01461 7.53564 9.63825 7.2023 10.3172 7.06725C10.9961 6.9322 11.6998 7.00151 12.3394 7.26642C12.9789 7.53133 13.5256 7.97993 13.9101 8.5555C14.2947 9.13108 14.5 9.80777 14.5 10.5C14.5 11.4283 14.1312 12.3185 13.4749 12.9749C12.8185 13.6313 11.9283 14 11 14Z" fill="#6B7280"/>
</svg>
